<?xml version="1.0" standalone="no"?>
<!DOCTYPE svg PUBLIC "-//W3C//DTD SVG 20010904//EN"
 "http://www.w3.org/TR/2001/REC-SVG-20010904/DTD/svg10.dtd">
<svg version="1.0" xmlns="http://www.w3.org/2000/svg"
 width="1257.000000pt" height="1280.000000pt" viewBox="0 0 1257.000000 1280.000000"
 preserveAspectRatio="xMidYMid meet">
<metadata>
Created by potrace 1.15, written by Peter Selinger 2001-2017
</metadata>
<g transform="translate(0.000000,1280.000000) scale(0.100000,-0.100000)"
fill="#aca267" stroke="none">
<path d="M9839 11747 c-210 -287 -391 -532 -402 -544 l-20 -23 -4709 0 -4708
0 0 -5590 0 -5590 5590 0 5590 0 0 4589 0 4589 569 776 569 776 -1048 769
-1049 770 -382 -522z m-1599 -2174 c0 -5 -608 -836 -1351 -1848 -742 -1012
-1354 -1847 -1359 -1855 -5 -8 -11 -12 -15 -9 -3 4 -202 571 -442 1260 -239
690 -436 1255 -437 1257 -2 1 -43 -12 -92 -29 -49 -17 -179 -63 -289 -101
-110 -38 -211 -74 -225 -78 -14 -4 -117 -40 -230 -80 -113 -40 -216 -76 -230
-80 -14 -4 -117 -40 -230 -80 -113 -39 -306 -107 -430 -150 -124 -43 -337
-117 -475 -165 -137 -48 -251 -88 -253 -89 -1 -2 137 -403 307 -892 754 -2170
1629 -4684 1687 -4851 l63 -183 -1209 0 -1210 0 0 3983 c0 2191 3 3987 7 3990
9 10 6413 9 6413 0z m1120 -5433 l0 -2540 -1866 0 c-1026 0 -1864 4 -1862 8 8
20 3714 5071 3721 5071 4 1 7 -1142 7 -2539z"/>
</g>
</svg>
