<?xml version="1.0" encoding="utf-8"?>
<!-- Svg Vector Icons : http://www.onlinewebfonts.com/icon -->
<!DOCTYPE svg PUBLIC "-//W3C//DTD SVG 1.1//EN" "http://www.w3.org/Graphics/SVG/1.1/DTD/svg11.dtd">
<svg version="1.1" xmlns="http://www.w3.org/2000/svg" xmlns:xlink="http://www.w3.org/1999/xlink" x="0px" y="0px" viewBox="0 0 1000 1000" enable-background="new 0 0 1000 1000" xml:space="preserve">
<metadata> Svg Vector Icons : http://www.onlinewebfonts.com/icon </metadata>
<g><g transform="translate(0.000000,512.000000) scale(0.100000,-0.100000)"><path d="M3750.5,4997c-218.2-63.2-415.4-233.6-520.7-453.7c-55.5-114.9-59.4-139.8-59.4-325.4c0-189.5,3.8-210.6,61.3-327.4c40.2-80.4,103.4-164.6,176.1-235.5c325.4-308.2,754.3-306.3,1072.1,5.7c193.3,189.5,283.3,455.6,233.6,695c-72.8,358-392.5,643.2-737.1,660.5C3901.7,5018,3800.3,5010.4,3750.5,4997z M4165.9,4662c149.3-76.6,233.6-202.9,250.8-382.9c32.5-314-166.6-545.6-470.9-545.6c-296.7,0-476.7,183.8-478.6,484.4c0,237.4,101.5,396.3,300.6,470.9C3867.3,4727,4068.3,4713.6,4165.9,4662z"/><path d="M7510.4,5008.5c-13.4-5.7-36.4-34.4-51.7-63.2c-24.9-47.9-28.7-390.5-28.7-2584.5v-2527h-840.4h-842.3L5709-216c-53.6-67-49.8-128.3,5.7-193.4l45.9-53.6l888.3-5.7c486.2-3.8,915.1,0,949.6,5.7c34.4,5.7,80.4,28.7,101.4,49.8c34.5,34.5,36.4,65.1,36.4,455.6v419.2l132.1,97.6c183.8,135.9,492,463.3,618.4,654.7c281.4,423.1,426.9,871.1,449.9,1376.5c42.1,938.1-407.8,1830.2-1183.1,2352.8C7642.5,5016.1,7575.5,5035.3,7510.4,5008.5z M7952.7,4372.9c474.8-488.2,702.6-1077.8,677.7-1744c-15.3-382.9-86.2-662.4-250.8-991.7c-139.7-277.6-375.2-578.2-568.6-733.2l-74.7-59.3v1858.9c0,1022.3,7.7,1858.9,15.3,1858.9C7761.2,4562.4,7851.2,4476.3,7952.7,4372.9z"/><path d="M697,3279.7c-23-9.6-49.8-34.5-61.3-55.5c-28.7-49.8-28.7-4430-1.9-4481.7c38.3-72.8,103.4-76.6,1275-76.6c626,0,1137.2-3.8,1137.2-9.6c0-3.8-342.7-708.3-763.8-1564.1l-761.9-1556.4l-417.3-9.6c-407.8-9.6-415.4-9.6-451.8-55.5c-49.8-61.3-45.9-147.4,11.5-202.9l45.9-47.9h901.7h901.7l45.9,47.9c61.3,59.3,65.1,160.8,7.7,212.5c-34.5,32.5-80.4,38.3-373.3,45.9l-333.1,9.6l794.5,1613.9c434.6,888.3,794.5,1629.2,796.4,1646.4c5.7,68.9-3.8,101.5-40.2,137.8c-38.3,38.3-63.2,38.3-1263.5,38.3H921v2107.8v2107.8l-55.5,55.5C808,3300.8,769.7,3308.5,697,3279.7z"/><path d="M3247,3279.7c-23-7.7-49.8-26.8-61.3-40.2c-17.2-23-857.7-3392.4-882.5-3541.7c-3.8-34.5,7.7-67,40.2-105.3l47.9-55.5l1177.4-9.6l1175.5-9.6l-790.7-1608.1c-589.6-1200.4-790.6-1625.4-790.6-1678.9c-3.8-128.3,139.7-193.4,233.5-107.2c55.5,51.7,1755.5,3507.2,1755.5,3568.5c0,23-17.2,63.2-40.2,91.9l-38.3,49.8H3867.3c-949.6,0-1204.2,5.7-1204.2,24.9c0,61.3,660.5,2708.9,672,2687.9c7.7-13.4,160.8-478.6,342.7-1037.6c204.9-631.8,344.6-1030,369.5-1056.8l38.3-44h915.1h915.1l40.2,42.1c40.2,44,49.8,130.2,19.2,187.6c-38.3,70.8-114.9,76.6-928.5,76.6h-786.8l-145.5,446.1c-80.4,243.1-262.3,806-405.8,1248.2C3409.7,3321.9,3400.1,3342.9,3247,3279.7z"/><path d="M5749.2-1060.3c-55.5-49.8-1746-3509.1-1746-3572.3c0-67,78.5-147.4,141.7-147.4c26.8,0,68.9,19.1,95.7,44c30.6,26.8,359.9,672,871.1,1717.3l821.3,1675.1l1571.7,5.7l1571.7,3.8v-1667.4V-4669l55.5-55.5c65.1-65.1,132.1-70.8,195.3-19.1l46,36.4l9.6,1763.2c5.8,970.6,3.9,1788-3.8,1816.8c-7.7,28.7-28.7,63.2-47.9,74.7c-24.9,19.1-413.5,24.9-1788.1,24.9C5898.5-1027.7,5785.5-1029.6,5749.2-1060.3z"/></g></g>
</svg>