<?xml version="1.0" encoding="UTF-8"?>
<svg xmlns="http://www.w3.org/2000/svg" xmlns:xlink="http://www.w3.org/1999/xlink" width="1234.4pt" height="371.9pt" viewBox="0 0 1234.4 371.9" version="1.1">
<defs>
<clipPath id="clip1">
  <path d="M 0 149 L 846 149 L 846 371.898438 L 0 371.898438 Z M 0 149 "/>
</clipPath>
</defs>
<g id="surface1">
<path style=" stroke:none;fill-rule:evenodd;fill:rgb(12.939453%,38.035583%,60.351563%);fill-opacity:1;" d="M 1160.898438 3.988281 C 1179.941406 -0.0898438 1200.898438 6.328125 1214.128906 20.6875 C 1230.300781 37.070313 1234.46875 63.710938 1224.46875 84.386719 C 1217.429688 99.796875 1203.101563 111.546875 1186.679688 115.628906 C 1170.539063 119.730469 1152.648438 116.46875 1139.160156 106.648438 C 1130.710938 100.421875 1123.75 92.046875 1119.761719 82.296875 C 1112.761719 65.71875 1114.089844 45.828125 1123.511719 30.46875 C 1131.589844 16.96875 1145.460938 7.078125 1160.898438 3.988281 Z M 1165.371094 40.367188 C 1164.921875 49.027344 1165.261719 57.738281 1165.199219 66.421875 C 1164.929688 69.769531 1167.871094 73.078125 1171.328125 72.757813 C 1182.03125 72.386719 1192.761719 72.847656 1203.480469 72.527344 C 1207.871094 71.628906 1209.398438 65.480469 1206.441406 62.347656 C 1205.171875 60.960938 1203.28125 60.296875 1201.449219 60.386719 C 1193.5 60.386719 1185.558594 60.421875 1177.621094 60.386719 C 1177.621094 54.398438 1177.628906 48.410156 1177.640625 42.421875 C 1177.710938 40.488281 1177.191406 38.421875 1175.710938 37.109375 C 1172.460938 34.117188 1165.941406 35.617188 1165.371094 40.367188 Z M 872.628906 149.757813 C 892.753906 140.171875 914.96875 134.289063 937.378906 134.839844 C 951.503906 135.160156 966.351563 138.109375 977.628906 147.117188 C 988.269531 155.367188 993.699219 169.070313 993.429688 182.339844 C 993.839844 194.1875 989.269531 205.757813 982.011719 214.988281 C 971.660156 228.347656 957.441406 237.828125 944.289063 248.171875 C 932.386719 257.449219 920.027344 267.847656 914.988281 282.609375 C 941.980469 282.660156 968.980469 282.609375 995.96875 282.628906 C 995.949219 293.136719 995.941406 303.648438 995.96875 314.167969 C 952.859375 314.070313 909.753906 314.378906 866.648438 314.007813 C 868.359375 297.332031 872.503906 280.628906 881.109375 266.097656 C 889.398438 251.636719 901.429688 239.710938 914.578125 229.628906 C 924.46875 221.808594 935.277344 215.128906 944.507813 206.480469 C 950.027344 201.277344 954.871094 194.378906 954.679688 186.46875 C 954.898438 180.1875 951.886719 173.730469 946.421875 170.449219 C 938.71875 165.570313 929.128906 165.597656 920.359375 166.476563 C 907.003906 167.859375 894.296875 172.679688 882.179688 178.257813 C 878.988281 168.757813 875.910156 159.230469 872.628906 149.757813 Z M 992.378906 248.238281 C 1021.929688 210.589844 1051.460938 172.929688 1081.109375 135.359375 C 1089.96875 135.449219 1098.839844 135.367188 1107.699219 135.398438 C 1107.699219 170.96875 1107.71875 206.527344 1107.699219 242.097656 C 1116.449219 242.078125 1125.191406 242.097656 1133.949219 242.089844 C 1133.96875 252.039063 1133.949219 262.003906 1133.960938 271.960938 C 1125.199219 271.96875 1116.441406 271.929688 1107.679688 271.976563 C 1107.730469 286.039063 1107.699219 300.109375 1107.699219 314.179688 C 1095.671875 314.167969 1083.648438 314.167969 1071.621094 314.179688 C 1071.628906 300.109375 1071.621094 286.027344 1071.628906 271.960938 C 1045.21875 271.960938 1018.820313 271.953125 992.410156 271.96875 C 992.371094 264.046875 992.421875 256.136719 992.378906 248.238281 Z M 1033.628906 242.839844 C 1046.28125 241.960938 1058.949219 242.046875 1071.628906 242.097656 C 1071.589844 224.949219 1071.390625 207.757813 1073.148438 190.679688 C 1060.011719 208.089844 1046.949219 225.570313 1033.628906 242.839844 Z M 1033.628906 242.839844 "/>
<g clip-path="url(#clip1)" clip-rule="nonzero">
<path style=" stroke:none;fill-rule:evenodd;fill:rgb(54.492188%,76.951599%,86.71875%);fill-opacity:1;" d="M 0.0585938 150.003906 C 35.859375 149.636719 71.679688 149.960938 107.488281 149.847656 C 104.878906 159.160156 101.796875 168.328125 99.117188 177.617188 C 77.527344 177.777344 55.929688 177.679688 34.332031 177.671875 C 34.039063 188.96875 34.269531 200.269531 34.21875 211.578125 C 53.226563 211.410156 73.332031 211.160156 90.636719 220.199219 C 101.421875 225.460938 109.460938 235.738281 112.039063 247.460938 C 114.867188 260.089844 114.296875 273.898438 108.648438 285.703125 C 103.519531 296.257813 93.617188 303.832031 82.703125 307.710938 C 70.488281 312.179688 57.332031 313.398438 44.398438 313.203125 C 29.648438 313.203125 14.898438 313.203125 0.136719 313.203125 C 0.0195313 258.796875 0.1875 204.398438 0.0585938 150.003906 Z M 34.21875 239.21875 C 34.1875 254.507813 34.167969 269.796875 34.230469 285.089844 C 44.269531 284.878906 54.566406 286.046875 64.332031 283.089844 C 69.609375 281.503906 74.769531 278.296875 77.210938 273.167969 C 79.917969 267.386719 80.046875 260.578125 78.308594 254.503906 C 76.71875 248.769531 72.148438 244.078125 66.527344 242.199219 C 56.203125 238.503906 45.007813 239.367188 34.21875 239.21875 Z M 372.960938 200.488281 C 392.71875 194.078125 413.910156 191.21875 434.570313 194.089844 C 450.367188 196.359375 466.089844 204.097656 474.96875 217.789063 C 484.136719 231.808594 486.339844 249.488281 483.960938 265.820313 C 481.808594 280.960938 473.6875 295.257813 461.21875 304.230469 C 450.347656 312.003906 436.789063 315.847656 423.460938 315.179688 C 417.636719 315.4375 411.828125 314.867188 406.179688 313.460938 C 406.160156 332.679688 406.003906 351.910156 406.128906 371.136719 C 399.558594 371.164063 392.9375 370.558594 386.4375 371.664063 C 382.347656 371.859375 378.253906 371.808594 374.160156 371.710938 C 373.886719 371.449219 373.339844 370.921875 373.070313 370.648438 C 373.019531 313.929688 372.820313 257.199219 372.960938 200.488281 Z M 406.359375 222.136719 C 406.308594 243.296875 406.296875 264.460938 406.210938 285.617188 C 413.539063 288.117188 421.527344 288.777344 429.117188 287.179688 C 436.609375 285.519531 443.277344 280.476563 446.578125 273.507813 C 450.679688 264.96875 451.210938 255.058594 449.769531 245.808594 C 448.429688 237.058594 443.503906 228.507813 435.359375 224.507813 C 426.4375 220.199219 415.878906 219.648438 406.359375 222.136719 Z M 704.277344 199.339844 C 713.003906 191.410156 725.886719 192.210938 736.617188 194.558594 C 736.777344 204.179688 736.671875 213.808594 736.679688 223.429688 C 731.738281 221.960938 725.253906 221.070313 721.738281 225.777344 C 715.109375 234.386719 715.117188 247.007813 706.128906 254.046875 C 711.9375 256.460938 716.289063 261.359375 718.878906 267.003906 C 726.070313 282.386719 733.316406 297.753906 740.398438 313.203125 C 728.226563 313.160156 716.058594 313.277344 703.886719 313.136719 C 699.347656 301.230469 694.867188 289.296875 690.347656 277.386719 C 688.609375 273.277344 686.757813 268.378906 682.378906 266.476563 C 676.609375 265.839844 670.769531 266.347656 664.96875 266.226563 C 664.910156 281.867188 664.96875 297.519531 664.9375 313.160156 C 653.699219 313.257813 642.449219 313.148438 631.210938 313.21875 C 630.960938 283.289063 631.179688 253.347656 631.097656 223.421875 C 631.238281 214.210938 630.816406 204.96875 631.308594 195.769531 C 642.519531 195.960938 653.730469 195.777344 664.9375 195.867188 C 664.976563 210.769531 664.910156 225.671875 664.96875 240.570313 C 671.789063 239.949219 680.679688 242.949219 685.488281 236.46875 C 693.460938 225.003906 693.71875 209.238281 704.277344 199.339844 Z M 767.519531 205.570313 C 783.546875 193.488281 805.171875 190.277344 824.449219 195.058594 C 829.546875 196.527344 835.003906 198.226563 839.109375 201.628906 C 839.320313 210.960938 839.171875 220.308594 839.160156 229.636719 C 829.570313 222.367188 817.289063 218.378906 805.253906 220.136719 C 797.277344 221.160156 789.738281 225.410156 785.003906 231.921875 C 778.777344 240.296875 777.003906 251.269531 778.347656 261.449219 C 779.253906 269.003906 782.308594 276.589844 788.160156 281.636719 C 793.898438 286.789063 801.828125 288.808594 809.398438 288.636719 C 818.738281 288.753906 827.839844 285.519531 835.738281 280.703125 C 839.386719 288.289063 842.488281 296.179688 845.476563 304.046875 C 829.070313 314.679688 808.449219 317.886719 789.359375 314.359375 C 776.1875 311.917969 763.726563 304.9375 755.589844 294.1875 C 745.199219 280.6875 742.058594 262.777344 744.046875 246.148438 C 746.027344 230.210938 754.519531 215.089844 767.519531 205.570313 Z M 129.636719 195.847656 C 140.539063 195.820313 151.429688 195.910156 162.328125 195.808594 C 162.21875 220.136719 163.078125 244.519531 161.46875 268.808594 C 176.078125 243.46875 193.988281 220.269531 210.179688 195.960938 C 221.171875 195.710938 232.171875 195.910156 243.160156 195.847656 C 243.257813 234.949219 243.179688 274.046875 243.136719 313.148438 C 232.226563 313.167969 221.316406 313.1875 210.410156 313.210938 C 210.378906 294.929688 210.410156 276.648438 210.398438 258.367188 C 210.398438 252.398438 210.988281 246.460938 211.410156 240.507813 C 205.839844 249.269531 200.6875 258.289063 194.738281 266.796875 C 184.003906 282.289063 173.386719 297.867188 162.503906 313.253906 C 151.539063 313.128906 140.578125 313.238281 129.617188 313.1875 C 129.597656 274.082031 129.558594 234.960938 129.636719 195.847656 Z M 498.4375 195.820313 C 509.347656 195.878906 520.257813 195.828125 531.160156 195.847656 C 531.039063 220.109375 531.796875 244.398438 530.257813 268.617188 C 534.777344 261.617188 538.726563 254.257813 543.449219 247.386719 C 555.269531 230.199219 567.199219 213.078125 579.027344 195.886719 C 590.003906 195.796875 600.96875 195.859375 611.9375 195.859375 C 611.960938 234.960938 611.9375 274.058594 611.949219 313.160156 C 601.027344 313.253906 590.097656 313.179688 579.179688 313.1875 C 579.003906 296.589844 579.171875 280.003906 579.097656 263.398438 C 578.988281 255.710938 579.597656 248.019531 580.148438 240.347656 C 565.367188 265.597656 547.828125 289.058594 531.257813 313.128906 C 520.339844 313.089844 509.429688 313.046875 498.519531 313.097656 C 498.527344 274.003906 498.308594 234.910156 498.4375 195.820313 Z M 254.398438 195.867188 C 291.277344 195.839844 328.160156 195.820313 365.027344 195.878906 C 362.003906 205.21875 359.269531 214.636719 356.128906 223.9375 C 345.078125 223.878906 334.019531 223.949219 322.96875 223.910156 C 322.921875 253.558594 322.738281 283.21875 322.96875 312.878906 C 311.738281 313.296875 300.488281 312.917969 289.257813 313.109375 C 288.980469 283.386719 289.238281 253.660156 289.078125 223.929688 C 277.519531 223.960938 265.960938 223.96875 254.398438 223.929688 C 254.398438 214.578125 254.398438 205.21875 254.398438 195.867188 Z M 254.398438 195.867188 "/>
</g>
</g>
</svg>
